<svg width="16" height="16" viewBox="0 0 16 16" fill="none" xmlns="http://www.w3.org/2000/svg">
<path d="M6.99984 10.1673C6.87117 10.1575 6.75157 10.0976 6.66649 10.0006L4.66649 8.00061C4.62193 7.90734 4.60739 7.80254 4.62488 7.70061C4.64236 7.59868 4.69101 7.50474 4.76412 7.43161C4.83724 7.35848 4.93122 7.30981 5.03312 7.29234C5.13503 7.27488 5.23986 7.28941 5.33316 7.33394L6.97984 8.98061L12.6665 3.33397C12.7598 3.28941 12.8646 3.27487 12.9665 3.29236C13.0684 3.30985 13.1624 3.35849 13.2355 3.43161C13.3086 3.50472 13.3573 3.5987 13.3748 3.70061C13.3922 3.80252 13.3777 3.90734 13.3332 4.00064L7.33317 10.0006C7.2481 10.0976 7.12844 10.1575 6.99984 10.1673Z" fill="#7BBCB0"/>
<path d="M8.00008 14.0005C6.92775 13.9988 5.87541 13.7097 4.95269 13.1634C4.02995 12.617 3.27052 11.8333 2.75341 10.8939C2.36033 10.1939 2.11739 9.41966 2.04007 8.62053C1.91806 7.4486 2.14381 6.26667 2.68917 5.22219C3.23453 4.17772 4.07535 3.31693 5.10674 2.74722C5.80675 2.35414 6.58097 2.1112 7.38008 2.03388C8.17615 1.94824 8.98135 2.02536 9.74675 2.26055C9.81501 2.2742 9.87975 2.30196 9.93668 2.34208C9.99361 2.38218 10.0415 2.43375 10.0774 2.49347C10.1133 2.55318 10.1363 2.61974 10.1449 2.68886C10.1535 2.75797 10.1477 2.82813 10.1276 2.89484C10.1075 2.96154 10.0737 3.02332 10.0284 3.07621C9.98308 3.1291 9.92721 3.17194 9.86441 3.20198C9.80155 3.23202 9.73308 3.24859 9.66348 3.25064C9.59388 3.25269 9.52455 3.24017 9.46008 3.21388C8.81248 3.01916 8.13255 2.9557 7.46008 3.02722C6.79541 3.09528 6.15137 3.2971 5.56674 3.62055C5.00349 3.93128 4.5055 4.34778 4.10007 4.84722C3.68265 5.35599 3.37093 5.94294 3.18319 6.57369C2.99546 7.20446 2.93547 7.86633 3.00674 8.52053C3.0748 9.18519 3.27663 9.82926 3.60007 10.4139C3.91081 10.9771 4.32731 11.4751 4.82674 11.8805C5.33551 12.298 5.92246 12.6097 6.55321 12.7974C7.18395 12.9851 7.84581 13.0451 8.50008 12.9739C9.16475 12.9058 9.80875 12.704 10.3934 12.3805C10.9567 12.0698 11.4546 11.6533 11.8601 11.1539C12.2775 10.6451 12.5892 10.0581 12.7769 9.42739C12.9647 8.79666 13.0247 8.1348 12.9534 7.48053C12.9468 7.4118 12.9539 7.34246 12.9741 7.27646C12.9943 7.21046 13.0273 7.14906 13.0713 7.09586C13.1153 7.04259 13.1693 6.99853 13.2303 6.96619C13.2913 6.93379 13.358 6.91379 13.4267 6.90719C13.4955 6.90066 13.5648 6.90766 13.6308 6.92793C13.6968 6.94813 13.7582 6.98119 13.8114 7.02513C13.8647 7.06906 13.9087 7.12313 13.9411 7.18406C13.9735 7.24506 13.9935 7.3118 14.0001 7.38053C14.1215 8.55319 13.8947 9.7356 13.3481 10.7802C12.8015 11.8247 11.9593 12.6851 10.9267 13.2539C10.2193 13.6631 9.43308 13.9175 8.62008 14.0005C8.41341 14.0005 8.20008 14.0005 8.00008 14.0005Z" fill="#7BBCB0"/>
</svg>
