<svg width="16" height="16" viewBox="0 0 16 16" fill="none" xmlns="http://www.w3.org/2000/svg">
<g clip-path="url(#clip0_348_11811)">
<path d="M5.1877 10.3625C5.0377 10.5125 5.0377 10.7625 5.1877 10.9125C5.3377 11.0625 5.5877 11.0625 5.7377 10.9125L11.2002 5.35C11.3502 5.2 11.3502 4.95 11.2002 4.8C11.0502 4.65 10.8002 4.65 10.6502 4.8L5.1877 10.3625Z" fill="#B64343"/>
<path d="M10.6502 10.9125C10.8002 11.0625 11.0502 11.0625 11.2002 10.9125C11.3502 10.7625 11.3502 10.5125 11.2002 10.3625L5.7377 4.8C5.5877 4.65 5.3377 4.65 5.1877 4.8C5.0377 4.95 5.0377 5.2 5.1877 5.35L10.6502 10.9125Z" fill="#B64343"/>
<path d="M8.0749 15.8498C3.7374 15.8498 0.212402 12.3248 0.212402 7.9873C0.212402 3.6498 3.7374 0.112305 8.0749 0.112305C12.4124 0.112305 15.9374 3.6373 15.9374 7.9748C15.9374 12.3123 12.4124 15.8498 8.0749 15.8498ZM8.0749 0.862305C4.1499 0.862305 0.962402 4.0623 0.962402 7.9873C0.962402 11.9123 4.1499 15.0998 8.0749 15.0998C11.9999 15.0998 15.1874 11.9123 15.1874 7.9873C15.1874 4.0623 11.9999 0.862305 8.0749 0.862305Z" fill="#B64343"/>
</g>
<defs>
<clipPath id="clip0_348_11811">
<rect width="16" height="16" fill="white"/>
</clipPath>
</defs>
</svg>
