<svg width="64" height="64" viewBox="0 0 64 64" fill="none" xmlns="http://www.w3.org/2000/svg">
<rect width="64" height="64" rx="32" fill="#65CC6E"/>
<path d="M22.0001 42.7502C21.8001 42.7502 21.6101 42.6702 21.4701 42.5302C21.2801 42.3402 21.2002 42.0602 21.2702 41.8002L22.5302 37.0902C21.6902 35.5302 21.2501 33.7702 21.2501 31.9902C21.2501 26.0602 26.0701 21.2402 32.0001 21.2402C37.9301 21.2402 42.7501 26.0602 42.7501 31.9902C42.7501 37.9202 37.9301 42.7402 32.0001 42.7402C30.1901 42.7402 28.4202 42.2902 26.8402 41.4302L22.2002 42.7202C22.1302 42.7402 22.0701 42.7502 22.0001 42.7502ZM26.9401 39.8802C27.0701 39.8802 27.2001 39.9203 27.3201 39.9803C28.7301 40.8103 30.3501 41.2502 32.0001 41.2502C37.1001 41.2502 41.2501 37.1002 41.2501 32.0002C41.2501 26.9002 37.1001 22.7502 32.0001 22.7502C26.9001 22.7502 22.7501 26.9002 22.7501 32.0002C22.7501 33.6302 23.1801 35.2202 23.9901 36.6202C24.0901 36.7902 24.1201 37.0002 24.0701 37.1902L23.0701 40.9302L26.7501 39.9102C26.8101 39.8902 26.8801 39.8802 26.9401 39.8802Z" fill="white"/>
<path d="M34.7402 37.7603C34.1202 37.7603 33.4802 37.6203 32.8102 37.3303C32.1802 37.0603 31.5502 36.7003 30.9402 36.2503C30.3402 35.8103 29.7503 35.3103 29.2103 34.7703C28.6703 34.2203 28.1702 33.6403 27.7302 33.0403C27.2802 32.4103 26.9202 31.7903 26.6602 31.1803C26.3802 30.5203 26.2402 29.8703 26.2402 29.2503C26.2402 28.8103 26.3202 28.3903 26.4702 28.0003C26.6302 27.5903 26.8902 27.2203 27.2302 26.9003C27.8702 26.2703 28.7903 26.0403 29.5203 26.3903C29.7703 26.5003 29.9803 26.6803 30.1403 26.9203L31.3002 28.5503C31.4202 28.7103 31.5103 28.8803 31.5803 29.0503C31.6603 29.2503 31.7103 29.4503 31.7103 29.6403C31.7103 29.9003 31.6402 30.1603 31.5002 30.3903C31.4102 30.5403 31.2802 30.7203 31.1102 30.8903L30.9802 31.0303C31.0402 31.1103 31.1102 31.2103 31.2202 31.3303C31.4302 31.5703 31.6602 31.8303 31.9102 32.0803C32.1602 32.3203 32.4102 32.5603 32.6602 32.7703C32.7802 32.8703 32.8803 32.9503 32.9603 33.0003L33.1002 32.8603C33.2802 32.6803 33.4603 32.5403 33.6403 32.4503C33.9703 32.2403 34.4802 32.1903 34.9302 32.3803C35.0902 32.4403 35.2502 32.5303 35.4202 32.6503L37.0903 33.8303C37.3203 33.9903 37.5002 34.2103 37.6202 34.4603C37.7202 34.7103 37.7603 34.9303 37.7603 35.1603C37.7603 35.4603 37.6902 35.7503 37.5602 36.0303C37.4302 36.2903 37.2802 36.5203 37.1002 36.7303C36.7802 37.0803 36.4103 37.3403 36.0103 37.5103C35.6103 37.6803 35.1802 37.7603 34.7402 37.7603ZM28.7902 27.7403C28.7302 27.7403 28.5303 27.7403 28.2803 27.9903C28.0903 28.1703 27.9602 28.3603 27.8702 28.5703C27.7802 28.7803 27.7402 29.0203 27.7402 29.2603C27.7402 29.6803 27.8402 30.1303 28.0402 30.6103C28.2502 31.1103 28.5602 31.6403 28.9402 32.1703C29.3302 32.7003 29.7703 33.2303 30.2603 33.7203C30.7503 34.2003 31.2702 34.6503 31.8102 35.0503C32.3302 35.4303 32.8603 35.7303 33.3903 35.9603C34.1503 36.2903 34.8502 36.3703 35.4202 36.1303C35.6202 36.0503 35.8002 35.9103 35.9802 35.7303C36.0702 35.6303 36.1403 35.5303 36.2003 35.4003C36.2303 35.3303 36.2502 35.2503 36.2502 35.1803C36.2502 35.1603 36.2502 35.1303 36.2202 35.0703L34.5502 33.9103C34.4802 33.8603 34.4102 33.8203 34.3502 33.8003C34.3102 33.8203 34.2503 33.8503 34.1403 33.9603L33.7603 34.3403C33.4703 34.6303 33.0103 34.7103 32.6403 34.5803L32.4603 34.5003C32.2303 34.3803 31.9702 34.2003 31.6802 33.9503C31.4002 33.7103 31.1303 33.4603 30.8403 33.1803C30.5603 32.8903 30.3103 32.6203 30.0703 32.3403C29.8103 32.0303 29.6303 31.7803 29.5103 31.5703L29.4003 31.3103C29.3703 31.2103 29.3602 31.1003 29.3602 31.0003C29.3602 30.7203 29.4603 30.4703 29.6503 30.2703L30.0303 29.8803C30.1403 29.7703 30.1803 29.7103 30.2003 29.6703C30.1703 29.6003 30.1303 29.5403 30.0803 29.4703L28.9102 27.8203L28.7902 27.7403Z" fill="white"/>
</svg>
